<svg width="47" height="29" viewBox="0 0 47 29" fill="none" xmlns="http://www.w3.org/2000/svg">
<path d="M0.0610352 12.362C0.0610352 5.84169 5.34676 0.555969 11.867 0.555969H34.7846C41.3048 0.555969 46.5905 5.84169 46.5905 12.362V16.5288C46.5905 23.0491 41.3048 28.3348 34.7845 28.3348H11.867C5.34674 28.3348 0.0610352 23.0491 0.0610352 16.5288V12.362Z" fill="#1DB954"/>
<g clip-path="url(#clip0_1_594)">
<path d="M29.2288 21.3888H18.1172V19.9998C18.1172 19.0789 18.4831 18.1957 19.1343 17.5445C19.7855 16.8933 20.6687 16.5275 21.5896 16.5275H25.7564C26.6773 16.5275 27.5605 16.8933 28.2117 17.5445C28.8629 18.1957 29.2288 19.0789 29.2288 19.9998V21.3888ZM23.673 15.1385C23.1258 15.1385 22.584 15.0308 22.0784 14.8214C21.5729 14.612 21.1135 14.305 20.7266 13.9181C20.3397 13.5312 20.0328 13.0718 19.8234 12.5663C19.614 12.0608 19.5062 11.5189 19.5062 10.9717C19.5062 10.4245 19.614 9.88269 19.8234 9.37715C20.0328 8.87161 20.3397 8.41226 20.7266 8.02533C21.1135 7.63841 21.5729 7.33148 22.0784 7.12208C22.584 6.91268 23.1258 6.8049 23.673 6.8049C24.7781 6.8049 25.838 7.2439 26.6194 8.02533C27.4008 8.80676 27.8398 9.86661 27.8398 10.9717C27.8398 12.0768 27.4008 13.1367 26.6194 13.9181C25.838 14.6995 24.7781 15.1385 23.673 15.1385Z" fill="white"/>
</g>
<defs>
<clipPath id="clip0_1_594">
<rect width="16.6673" height="16.6673" fill="white" transform="translate(15.3392 6.11105)"/>
</clipPath>
</defs>
</svg>
