<svg width="483" height="159" viewBox="0 0 483 159" fill="none" xmlns="http://www.w3.org/2000/svg">
<path d="M31.5589 8.54546C31.3089 8.06396 30.9617 7.70284 30.5172 7.46209C30.0727 7.21208 29.5588 7.08707 28.9755 7.08707C28.3366 7.08707 27.7671 7.2306 27.2671 7.51765C26.7671 7.80469 26.3735 8.21212 26.0865 8.73991C25.8087 9.26771 25.6698 9.87884 25.6698 10.5733C25.6698 11.2678 25.8087 11.8835 26.0865 12.4206C26.3735 12.9484 26.7671 13.3558 27.2671 13.6429C27.7671 13.9299 28.3366 14.0734 28.9755 14.0734C29.8366 14.0734 30.5357 13.8327 31.0728 13.3512C31.6098 12.8697 31.9385 12.2169 32.0589 11.3928H28.4338V10.1289H33.7534V11.365C33.6516 12.115 33.383 12.8049 32.9478 13.4345C32.5219 14.0642 31.9617 14.5688 31.2672 14.9485C30.582 15.3189 29.8181 15.5041 28.9755 15.5041C28.068 15.5041 27.2393 15.2957 26.4893 14.879C25.7392 14.4531 25.142 13.8651 24.6975 13.1151C24.2623 12.365 24.0447 11.5178 24.0447 10.5733C24.0447 9.62883 24.2623 8.78158 24.6975 8.03155C25.142 7.28153 25.7392 6.69817 26.4893 6.28149C27.2486 5.85555 28.0773 5.64258 28.9755 5.64258C30.0033 5.64258 30.9154 5.89722 31.7117 6.40649C32.5173 6.90651 33.1006 7.6195 33.4618 8.54546H31.5589ZM36.8985 5.14256V15.4207H35.3151V5.14256H36.8985ZM42.2969 15.5457C41.5747 15.5457 40.9219 15.3837 40.3385 15.0596C39.7552 14.7262 39.2968 14.2633 38.9635 13.6707C38.6301 13.0688 38.4635 12.3743 38.4635 11.5872C38.4635 10.8094 38.6348 10.1196 38.9774 9.51772C39.32 8.91585 39.7876 8.45287 40.3802 8.12878C40.9728 7.80469 41.6349 7.64265 42.3664 7.64265C43.0979 7.64265 43.7599 7.80469 44.3526 8.12878C44.9452 8.45287 45.4128 8.91585 45.7554 9.51772C46.098 10.1196 46.2693 10.8094 46.2693 11.5872C46.2693 12.365 46.0934 13.0549 45.7415 13.6568C45.3896 14.2586 44.9081 14.7262 44.297 15.0596C43.6951 15.3837 43.0284 15.5457 42.2969 15.5457ZM42.2969 14.1707C42.7044 14.1707 43.084 14.0734 43.4359 13.879C43.797 13.6845 44.0887 13.3929 44.3109 13.004C44.5331 12.6151 44.6442 12.1428 44.6442 11.5872C44.6442 11.0317 44.5378 10.5641 44.3248 10.1844C44.1118 9.79551 43.8294 9.50383 43.4775 9.30938C43.1257 9.11493 42.746 9.0177 42.3386 9.0177C41.9312 9.0177 41.5515 9.11493 41.1997 9.30938C40.8571 9.50383 40.5839 9.79551 40.3802 10.1844C40.1765 10.5641 40.0746 11.0317 40.0746 11.5872C40.0746 12.4113 40.283 13.0503 40.6996 13.504C41.1256 13.9484 41.658 14.1707 42.2969 14.1707ZM49.418 8.90659C49.6865 8.5362 50.0522 8.23526 50.5152 8.00377C50.9875 7.76303 51.5106 7.64265 52.0847 7.64265C52.7607 7.64265 53.3718 7.80469 53.9181 8.12878C54.4644 8.45287 54.895 8.91585 55.2098 9.51772C55.5247 10.1103 55.6821 10.7909 55.6821 11.5595C55.6821 12.328 55.5247 13.0178 55.2098 13.629C54.895 14.2309 54.4598 14.7031 53.9042 15.0457C53.3579 15.379 52.7514 15.5457 52.0847 15.5457C51.4921 15.5457 50.9643 15.43 50.5013 15.1985C50.0476 14.967 49.6865 14.6707 49.418 14.3096V15.4207H47.8346V5.14256H49.418V8.90659ZM54.0709 11.5595C54.0709 11.0317 53.9598 10.5779 53.7376 10.1983C53.5246 9.8094 53.2375 9.51772 52.8764 9.32327C52.5246 9.11956 52.1449 9.0177 51.7375 9.0177C51.3393 9.0177 50.9597 9.11956 50.5986 9.32327C50.2467 9.52698 49.9596 9.82329 49.7374 10.2122C49.5244 10.6011 49.418 11.0594 49.418 11.5872C49.418 12.115 49.5244 12.578 49.7374 12.9762C49.9596 13.3651 50.2467 13.6614 50.5986 13.8651C50.9597 14.0688 51.3393 14.1707 51.7375 14.1707C52.1449 14.1707 52.5246 14.0688 52.8764 13.8651C53.2375 13.6521 53.5246 13.3466 53.7376 12.9484C53.9598 12.5502 54.0709 12.0873 54.0709 11.5595ZM56.7201 11.5595C56.7201 10.7909 56.8775 10.1103 57.1923 9.51772C57.5164 8.9251 57.9516 8.46675 58.4979 8.14267C59.0535 7.80932 59.6646 7.64265 60.3313 7.64265C60.9332 7.64265 61.4564 7.76303 61.9008 8.00377C62.3546 8.23526 62.7157 8.52694 62.9842 8.87881V7.76766H64.5815V15.4207H62.9842V14.2818C62.7157 14.6429 62.3499 14.9438 61.887 15.1846C61.424 15.4253 60.8962 15.5457 60.3036 15.5457C59.6461 15.5457 59.0443 15.379 58.4979 15.0457C57.9516 14.7031 57.5164 14.2309 57.1923 13.629C56.8775 13.0178 56.7201 12.328 56.7201 11.5595ZM62.9842 11.5872C62.9842 11.0594 62.8731 10.6011 62.6509 10.2122C62.4379 9.82329 62.1555 9.52698 61.8036 9.32327C61.4518 9.11956 61.0721 9.0177 60.6647 9.0177C60.2573 9.0177 59.8776 9.11956 59.5258 9.32327C59.1739 9.51772 58.8868 9.8094 58.6646 10.1983C58.4516 10.5779 58.3452 11.0317 58.3452 11.5595C58.3452 12.0873 58.4516 12.5502 58.6646 12.9484C58.8868 13.3466 59.1739 13.6521 59.5258 13.8651C59.8869 14.0688 60.2665 14.1707 60.6647 14.1707C61.0721 14.1707 61.4518 14.0688 61.8036 13.8651C62.1555 13.6614 62.4379 13.3651 62.6509 12.9762C62.8731 12.578 62.9842 12.115 62.9842 11.5872ZM68.2446 5.14256V15.4207H66.6612V5.14256H68.2446ZM77.0843 5.76758C78.1122 5.76758 79.0103 5.96666 79.7789 6.36483C80.5567 6.75373 81.1539 7.31856 81.5706 8.05933C81.9966 8.79084 82.2095 9.64735 82.2095 10.6289C82.2095 11.6104 81.9966 12.4623 81.5706 13.1845C81.1539 13.9068 80.5567 14.4623 79.7789 14.8512C79.0103 15.2309 78.1122 15.4207 77.0843 15.4207H73.9315V5.76758H77.0843ZM77.0843 14.129C78.214 14.129 79.0798 13.8234 79.6817 13.2123C80.2835 12.6012 80.5845 11.74 80.5845 10.6289C80.5845 9.50846 80.2835 8.63343 79.6817 8.00377C79.0798 7.37412 78.214 7.05929 77.0843 7.05929H75.5148V14.129H77.0843ZM84.5844 6.75373C84.2974 6.75373 84.0566 6.6565 83.8622 6.46205C83.6677 6.2676 83.5705 6.02685 83.5705 5.7398C83.5705 5.45275 83.6677 5.212 83.8622 5.01755C84.0566 4.8231 84.2974 4.72588 84.5844 4.72588C84.8622 4.72588 85.0983 4.8231 85.2928 5.01755C85.4872 5.212 85.5844 5.45275 85.5844 5.7398C85.5844 6.02685 85.4872 6.2676 85.2928 6.46205C85.0983 6.6565 84.8622 6.75373 84.5844 6.75373ZM85.3622 7.76766V15.4207H83.7788V7.76766H85.3622ZM90.2189 15.5457C89.6171 15.5457 89.0754 15.4392 88.5939 15.2263C88.1216 15.004 87.7466 14.7077 87.4688 14.3373C87.1911 13.9577 87.0429 13.5364 87.0244 13.0734H88.6633C88.6911 13.3975 88.8439 13.6707 89.1217 13.8929C89.4087 14.1059 89.7652 14.2123 90.1912 14.2123C90.6356 14.2123 90.9782 14.129 91.219 13.9623C91.469 13.7864 91.594 13.5642 91.594 13.2956C91.594 13.0086 91.4551 12.7956 91.1773 12.6567C90.9088 12.5178 90.4782 12.365 89.8856 12.1984C89.3115 12.041 88.8439 11.8882 88.4828 11.74C88.1216 11.5919 87.8068 11.365 87.5383 11.0594C87.279 10.7539 87.1494 10.3511 87.1494 9.85107C87.1494 9.44364 87.2698 9.07326 87.5105 8.73991C87.7513 8.39731 88.0939 8.12878 88.5383 7.93433C88.992 7.73988 89.5106 7.64265 90.0939 7.64265C90.9643 7.64265 91.6634 7.86488 92.1912 8.30934C92.7283 8.74454 93.0153 9.34179 93.0524 10.1011H91.469C91.4412 9.75847 91.3023 9.48531 91.0523 9.2816C90.8023 9.07789 90.4643 8.97603 90.0384 8.97603C89.6217 8.97603 89.3022 9.05474 89.08 9.21215C88.8578 9.36957 88.7467 9.57791 88.7467 9.83718C88.7467 10.0409 88.8207 10.2122 88.9689 10.3511C89.1171 10.49 89.2976 10.6011 89.5106 10.6844C89.7236 10.7585 90.0384 10.8557 90.4551 10.9761C91.0106 11.1243 91.4644 11.277 91.8162 11.4345C92.1774 11.5826 92.4875 11.8048 92.7468 12.1011C93.0061 12.3975 93.1403 12.791 93.1496 13.2817C93.1496 13.7169 93.0292 14.1059 92.7885 14.4485C92.5477 14.7911 92.2051 15.0596 91.7607 15.254C91.3255 15.4485 90.8116 15.5457 90.2189 15.5457ZM94.3327 11.5872C94.3327 10.8002 94.4901 10.1103 94.8049 9.51772C95.129 8.91585 95.5735 8.45287 96.1383 8.12878C96.7032 7.80469 97.3513 7.64265 98.0828 7.64265C99.0088 7.64265 99.7727 7.86488 100.375 8.30934C100.986 8.74454 101.398 9.36957 101.611 10.1844H99.9024C99.7635 9.80477 99.5412 9.50846 99.2357 9.29549C98.9301 9.08252 98.5458 8.97603 98.0828 8.97603C97.4347 8.97603 96.9161 9.20752 96.5272 9.6705C96.1476 10.1242 95.9578 10.7631 95.9578 11.5872C95.9578 12.4113 96.1476 13.0549 96.5272 13.5179C96.9161 13.9808 97.4347 14.2123 98.0828 14.2123C98.9995 14.2123 99.606 13.8095 99.9024 13.004H101.611C101.389 13.7818 100.972 14.4022 100.361 14.8651C99.7496 15.3189 98.9903 15.5457 98.0828 15.5457C97.3513 15.5457 96.7032 15.3837 96.1383 15.0596C95.5735 14.7262 95.129 14.2633 94.8049 13.6707C94.4901 13.0688 94.3327 12.3743 94.3327 11.5872ZM106.508 15.5457C105.786 15.5457 105.133 15.3837 104.55 15.0596C103.967 14.7262 103.508 14.2633 103.175 13.6707C102.841 13.0688 102.675 12.3743 102.675 11.5872C102.675 10.8094 102.846 10.1196 103.189 9.51772C103.531 8.91585 103.999 8.45287 104.592 8.12878C105.184 7.80469 105.846 7.64265 106.578 7.64265C107.309 7.64265 107.971 7.80469 108.564 8.12878C109.157 8.45287 109.624 8.91585 109.967 9.51772C110.309 10.1196 110.481 10.8094 110.481 11.5872C110.481 12.365 110.305 13.0549 109.953 13.6568C109.601 14.2586 109.119 14.7262 108.508 15.0596C107.906 15.3837 107.24 15.5457 106.508 15.5457ZM106.508 14.1707C106.916 14.1707 107.295 14.0734 107.647 13.879C108.008 13.6845 108.3 13.3929 108.522 13.004C108.744 12.6151 108.856 12.1428 108.856 11.5872C108.856 11.0317 108.749 10.5641 108.536 10.1844C108.323 9.79551 108.041 9.50383 107.689 9.30938C107.337 9.11493 106.957 9.0177 106.55 9.0177C106.143 9.0177 105.763 9.11493 105.411 9.30938C105.068 9.50383 104.795 9.79551 104.592 10.1844C104.388 10.5641 104.286 11.0317 104.286 11.5872C104.286 12.4113 104.494 13.0503 104.911 13.504C105.337 13.9484 105.869 14.1707 106.508 14.1707ZM115.004 14.004L117.171 7.76766H118.852L115.935 15.4207H114.046L111.143 7.76766H112.838L115.004 14.004ZM127.063 11.4067C127.063 11.6937 127.044 11.953 127.007 12.1845H121.16C121.206 12.7956 121.433 13.2864 121.84 13.6568C122.248 14.0271 122.748 14.2123 123.34 14.2123C124.192 14.2123 124.794 13.8558 125.146 13.1429H126.854C126.623 13.8466 126.202 14.4253 125.59 14.879C124.989 15.3235 124.239 15.5457 123.34 15.5457C122.609 15.5457 121.951 15.3837 121.368 15.0596C120.794 14.7262 120.34 14.2633 120.007 13.6707C119.683 13.0688 119.521 12.3743 119.521 11.5872C119.521 10.8002 119.678 10.1103 119.993 9.51772C120.317 8.91585 120.766 8.45287 121.34 8.12878C121.924 7.80469 122.59 7.64265 123.34 7.64265C124.063 7.64265 124.706 7.80006 125.271 8.11489C125.836 8.42972 126.276 8.87418 126.591 9.44827C126.905 10.0131 127.063 10.6659 127.063 11.4067ZM125.41 10.9067C125.401 10.3233 125.192 9.85569 124.785 9.50383C124.377 9.15197 123.873 8.97603 123.271 8.97603C122.725 8.97603 122.257 9.15197 121.868 9.50383C121.479 9.84644 121.248 10.314 121.174 10.9067H125.41ZM130.204 8.87881C130.436 8.4899 130.741 8.18897 131.121 7.976C131.51 7.75377 131.968 7.64265 132.496 7.64265V9.2816H132.093C131.473 9.2816 131.001 9.43901 130.677 9.75384C130.362 10.0687 130.204 10.615 130.204 11.3928V15.4207H128.621V7.76766H130.204V8.87881ZM140.841 7.76766L136.146 19.0181H134.507L136.063 15.2957L133.049 7.76766H134.813L136.966 13.6012L139.202 7.76766H140.841Z" fill="#333333"/>
<path d="M46.6489 35.9974V42.0865H38.382V67.1986H30.7817V42.0865H22.5147V35.9974H46.6489ZM48.9521 54.7537C48.9521 52.2054 49.4262 49.9683 50.3744 48.0423C51.3522 46.1163 52.6708 44.6348 54.3301 43.5977C55.9894 42.5606 57.8414 42.0421 59.8859 42.0421C61.6341 42.0421 63.1601 42.3977 64.4638 43.1088C65.7972 43.8199 66.8195 44.7533 67.5306 45.9089V42.3977H75.1309V67.1986H67.5306V63.6873C66.7898 64.8429 65.7528 65.7763 64.4194 66.4874C63.1156 67.1986 61.5896 67.5541 59.8414 67.5541C57.8265 67.5541 55.9894 67.0356 54.3301 65.9985C52.6708 64.9318 51.3522 63.4355 50.3744 61.5095C49.4262 59.5539 48.9521 57.3019 48.9521 54.7537ZM67.5306 54.7981C67.5306 52.9018 66.9973 51.4054 65.9305 50.3091C64.8935 49.2127 63.6194 48.6646 62.1082 48.6646C60.597 48.6646 59.3081 49.2127 58.2414 50.3091C57.2043 51.3758 56.6858 52.8573 56.6858 54.7537C56.6858 56.65 57.2043 58.1612 58.2414 59.2872C59.3081 60.3835 60.597 60.9317 62.1082 60.9317C63.6194 60.9317 64.8935 60.3835 65.9305 59.2872C66.9973 58.1908 67.5306 56.6945 67.5306 54.7981ZM88.2296 46.5311C89.1186 45.1681 90.2297 44.1014 91.5631 43.331C92.8965 42.531 94.378 42.131 96.0077 42.131V50.1757H93.9187C92.0224 50.1757 90.6001 50.5906 89.6519 51.4202C88.7037 52.2202 88.2296 53.6425 88.2296 55.687V67.1986H80.6294V42.3977H88.2296V46.5311ZM109.063 42.0421C110.811 42.0421 112.337 42.3977 113.641 43.1088C114.974 43.8199 115.997 44.7533 116.708 45.9089V42.3977H124.308V67.1541C124.308 69.4357 123.849 71.495 122.93 73.3321C122.041 75.1989 120.663 76.6804 118.797 77.7767C116.96 78.8731 114.663 79.4213 111.908 79.4213C108.233 79.4213 105.255 78.5471 102.974 76.7989C100.692 75.0804 99.3886 72.7395 99.0627 69.7765H106.574C106.811 70.7246 107.374 71.4654 108.263 71.9988C109.152 72.5617 110.248 72.8432 111.552 72.8432C113.122 72.8432 114.367 72.384 115.285 71.4654C116.234 70.5765 116.708 69.1394 116.708 67.1541V63.6429C115.967 64.7985 114.945 65.7467 113.641 66.4874C112.337 67.1986 110.811 67.5541 109.063 67.5541C107.019 67.5541 105.167 67.0356 103.507 65.9985C101.848 64.9318 100.529 63.4355 99.5516 61.5095C98.6034 59.5539 98.1293 57.3019 98.1293 54.7537C98.1293 52.2054 98.6034 49.9683 99.5516 48.0423C100.529 46.1163 101.848 44.6348 103.507 43.5977C105.167 42.5606 107.019 42.0421 109.063 42.0421ZM116.708 54.7981C116.708 52.9018 116.174 51.4054 115.108 50.3091C114.071 49.2127 112.797 48.6646 111.285 48.6646C109.774 48.6646 108.485 49.2127 107.419 50.3091C106.381 51.3758 105.863 52.8573 105.863 54.7537C105.863 56.65 106.381 58.1612 107.419 59.2872C108.485 60.3835 109.774 60.9317 111.285 60.9317C112.797 60.9317 114.071 60.3835 115.108 59.2872C116.174 58.1908 116.708 56.6945 116.708 54.7981ZM153.185 54.3981C153.185 55.1092 153.141 55.85 153.052 56.6204H135.851C135.97 58.1612 136.459 59.3464 137.318 60.1761C138.207 60.9761 139.288 61.3761 140.562 61.3761C142.459 61.3761 143.777 60.5761 144.518 58.9761H152.607C152.193 60.6057 151.437 62.0725 150.341 63.3762C149.274 64.68 147.926 65.7022 146.296 66.443C144.666 67.1838 142.844 67.5541 140.829 67.5541C138.399 67.5541 136.236 67.0356 134.34 65.9985C132.444 64.9615 130.962 63.4799 129.895 61.5539C128.829 59.6279 128.295 57.376 128.295 54.7981C128.295 52.2202 128.814 49.9683 129.851 48.0423C130.918 46.1163 132.399 44.6348 134.296 43.5977C136.192 42.5606 138.37 42.0421 140.829 42.0421C143.229 42.0421 145.363 42.5458 147.229 43.5533C149.096 44.5607 150.548 45.9978 151.585 47.8645C152.652 49.7313 153.185 51.9091 153.185 54.3981ZM145.407 52.398C145.407 51.0943 144.963 50.0572 144.074 49.2868C143.185 48.5164 142.074 48.1312 140.74 48.1312C139.466 48.1312 138.385 48.5016 137.496 49.2424C136.636 49.9831 136.103 51.035 135.896 52.398H145.407ZM171.017 60.7539V67.1986H167.151C164.395 67.1986 162.247 66.5319 160.706 65.1985C159.165 63.8355 158.395 61.628 158.395 58.576V48.709H155.372V42.3977H158.395V36.353H165.995V42.3977H170.973V48.709H165.995V58.6649C165.995 59.4057 166.173 59.939 166.528 60.265C166.884 60.5909 167.477 60.7539 168.306 60.7539H171.017ZM198.63 54.3981C198.63 55.1092 198.585 55.85 198.496 56.6204H181.296C181.414 58.1612 181.903 59.3464 182.762 60.1761C183.651 60.9761 184.733 61.3761 186.007 61.3761C187.903 61.3761 189.222 60.5761 189.963 58.9761H198.052C197.637 60.6057 196.881 62.0725 195.785 63.3762C194.718 64.68 193.37 65.7022 191.74 66.443C190.111 67.1838 188.288 67.5541 186.274 67.5541C183.844 67.5541 181.681 67.0356 179.784 65.9985C177.888 64.9615 176.407 63.4799 175.34 61.5539C174.273 59.6279 173.74 57.376 173.74 54.7981C173.74 52.2202 174.258 49.9683 175.295 48.0423C176.362 46.1163 177.844 44.6348 179.74 43.5977C181.636 42.5606 183.814 42.0421 186.274 42.0421C188.674 42.0421 190.807 42.5458 192.674 43.5533C194.541 44.5607 195.992 45.9978 197.029 47.8645C198.096 49.7313 198.63 51.9091 198.63 54.3981ZM190.851 52.398C190.851 51.0943 190.407 50.0572 189.518 49.2868C188.629 48.5164 187.518 48.1312 186.185 48.1312C184.911 48.1312 183.829 48.5016 182.94 49.2424C182.081 49.9831 181.547 51.035 181.34 52.398H190.851ZM201.128 54.7537C201.128 52.2054 201.602 49.9683 202.55 48.0423C203.528 46.1163 204.847 44.6348 206.506 43.5977C208.165 42.5606 210.017 42.0421 212.062 42.0421C213.691 42.0421 215.173 42.3828 216.506 43.0644C217.869 43.7459 218.936 44.6644 219.706 45.82V34.3085H227.307V67.1986H219.706V63.6429C218.995 64.8281 217.973 65.7763 216.64 66.4874C215.336 67.1986 213.81 67.5541 212.062 67.5541C210.017 67.5541 208.165 67.0356 206.506 65.9985C204.847 64.9318 203.528 63.4355 202.55 61.5095C201.602 59.5539 201.128 57.3019 201.128 54.7537ZM219.706 54.7981C219.706 52.9018 219.173 51.4054 218.106 50.3091C217.069 49.2127 215.795 48.6646 214.284 48.6646C212.773 48.6646 211.484 49.2127 210.417 50.3091C209.38 51.3758 208.862 52.8573 208.862 54.7537C208.862 56.65 209.38 58.1612 210.417 59.2872C211.484 60.3835 212.773 60.9317 214.284 60.9317C215.795 60.9317 217.069 60.3835 218.106 59.2872C219.173 58.1908 219.706 56.6945 219.706 54.7981ZM47.9823 116.042C47.9823 117.85 47.5675 119.509 46.7378 121.02C45.9082 122.502 44.634 123.702 42.9155 124.62C41.1969 125.539 39.0635 125.998 36.5152 125.998H31.8039V137.199H24.2037V105.997H36.5152C39.0042 105.997 41.108 106.427 42.8266 107.286C44.5452 108.146 45.8341 109.331 46.6934 110.842C47.5527 112.353 47.9823 114.087 47.9823 116.042ZM35.9374 119.953C37.3893 119.953 38.4709 119.613 39.182 118.931C39.8931 118.25 40.2487 117.287 40.2487 116.042C40.2487 114.798 39.8931 113.835 39.182 113.153C38.4709 112.472 37.3893 112.131 35.9374 112.131H31.8039V119.953H35.9374ZM59.5393 116.531C60.4283 115.168 61.5394 114.101 62.8728 113.331C64.2062 112.531 65.6877 112.131 67.3174 112.131V120.176H65.2284C63.3321 120.176 61.9098 120.591 60.9616 121.42C60.0134 122.22 59.5393 123.643 59.5393 125.687V137.199H51.9391V112.398H59.5393V116.531ZM82.2395 137.554C79.8098 137.554 77.6171 137.036 75.6615 135.999C73.7355 134.961 72.2095 133.48 71.0835 131.554C69.9872 129.628 69.439 127.376 69.439 124.798C69.439 122.25 70.002 120.013 71.128 118.087C72.2539 116.131 73.7947 114.635 75.7504 113.598C77.706 112.561 79.8987 112.042 82.3284 112.042C84.7581 112.042 86.9508 112.561 88.9064 113.598C90.862 114.635 92.4028 116.131 93.5288 118.087C94.6548 120.013 95.2177 122.25 95.2177 124.798C95.2177 127.346 94.6399 129.598 93.4843 131.554C92.3584 133.48 90.8028 134.961 88.8175 135.999C86.8619 137.036 84.6692 137.554 82.2395 137.554ZM82.2395 130.976C83.6914 130.976 84.9211 130.443 85.9285 129.376C86.9656 128.309 87.4841 126.783 87.4841 124.798C87.4841 122.813 86.9804 121.287 85.973 120.22C84.9951 119.153 83.7803 118.62 82.3284 118.62C80.8468 118.62 79.6172 119.153 78.6394 120.22C77.6615 121.257 77.1726 122.783 77.1726 124.798C77.1726 126.783 77.6467 128.309 78.5949 129.376C79.5727 130.443 80.7876 130.976 82.2395 130.976ZM130.895 112.131C133.977 112.131 136.422 113.064 138.229 114.931C140.066 116.798 140.985 119.391 140.985 122.709V137.199H133.429V123.731C133.429 122.131 132.999 120.902 132.14 120.042C131.31 119.153 130.155 118.709 128.673 118.709C127.192 118.709 126.021 119.153 125.162 120.042C124.332 120.902 123.917 122.131 123.917 123.731V137.199H116.362V123.731C116.362 122.131 115.932 120.902 115.073 120.042C114.243 119.153 113.087 118.709 111.606 118.709C110.124 118.709 108.954 119.153 108.095 120.042C107.265 120.902 106.85 122.131 106.85 123.731V137.199H99.2498V112.398H106.85V115.509C107.621 114.472 108.628 113.657 109.872 113.064C111.117 112.442 112.524 112.131 114.095 112.131C115.962 112.131 117.621 112.531 119.073 113.331C120.554 114.131 121.71 115.272 122.54 116.753C123.399 115.39 124.569 114.279 126.051 113.42C127.532 112.561 129.147 112.131 130.895 112.131ZM157.589 137.554C155.16 137.554 152.967 137.036 151.011 135.999C149.085 134.961 147.559 133.48 146.434 131.554C145.337 129.628 144.789 127.376 144.789 124.798C144.789 122.25 145.352 120.013 146.478 118.087C147.604 116.131 149.145 114.635 151.1 113.598C153.056 112.561 155.249 112.042 157.678 112.042C160.108 112.042 162.301 112.561 164.256 113.598C166.212 114.635 167.753 116.131 168.879 118.087C170.005 120.013 170.568 122.25 170.568 124.798C170.568 127.346 169.99 129.598 168.834 131.554C167.708 133.48 166.153 134.961 164.168 135.999C162.212 137.036 160.019 137.554 157.589 137.554ZM157.589 130.976C159.041 130.976 160.271 130.443 161.279 129.376C162.316 128.309 162.834 126.783 162.834 124.798C162.834 122.813 162.33 121.287 161.323 120.22C160.345 119.153 159.13 118.62 157.678 118.62C156.197 118.62 154.967 119.153 153.989 120.22C153.012 121.257 152.523 122.783 152.523 124.798C152.523 126.783 152.997 128.309 153.945 129.376C154.923 130.443 156.138 130.976 157.589 130.976ZM188.423 130.754V137.199H184.556C181.8 137.199 179.652 136.532 178.111 135.199C176.57 133.835 175.8 131.628 175.8 128.576V118.709H172.778V112.398H175.8V106.353H183.4V112.398H188.378V118.709H183.4V128.665C183.4 129.406 183.578 129.939 183.934 130.265C184.289 130.591 184.882 130.754 185.711 130.754H188.423ZM196.478 109.82C195.145 109.82 194.049 109.435 193.189 108.664C192.36 107.864 191.945 106.886 191.945 105.731C191.945 104.546 192.36 103.568 193.189 102.797C194.049 101.997 195.145 101.597 196.478 101.597C197.782 101.597 198.849 101.997 199.679 102.797C200.538 103.568 200.967 104.546 200.967 105.731C200.967 106.886 200.538 107.864 199.679 108.664C198.849 109.435 197.782 109.82 196.478 109.82ZM200.256 112.398V137.199H192.656V112.398H200.256ZM217.053 137.554C214.624 137.554 212.431 137.036 210.475 135.999C208.549 134.961 207.023 133.48 205.898 131.554C204.801 129.628 204.253 127.376 204.253 124.798C204.253 122.25 204.816 120.013 205.942 118.087C207.068 116.131 208.609 114.635 210.564 113.598C212.52 112.561 214.713 112.042 217.142 112.042C219.572 112.042 221.765 112.561 223.72 113.598C225.676 114.635 227.217 116.131 228.343 118.087C229.469 120.013 230.032 122.25 230.032 124.798C230.032 127.346 229.454 129.598 228.298 131.554C227.172 133.48 225.617 134.961 223.632 135.999C221.676 137.036 219.483 137.554 217.053 137.554ZM217.053 130.976C218.505 130.976 219.735 130.443 220.743 129.376C221.78 128.309 222.298 126.783 222.298 124.798C222.298 122.813 221.794 121.287 220.787 120.22C219.809 119.153 218.594 118.62 217.142 118.62C215.661 118.62 214.431 119.153 213.453 120.22C212.476 121.257 211.987 122.783 211.987 124.798C211.987 126.783 212.461 128.309 213.409 129.376C214.387 130.443 215.602 130.976 217.053 130.976ZM249.176 112.131C252.079 112.131 254.391 113.079 256.109 114.976C257.857 116.842 258.731 119.42 258.731 122.709V137.199H251.176V123.731C251.176 122.072 250.746 120.783 249.887 119.865C249.027 118.946 247.872 118.487 246.42 118.487C244.968 118.487 243.812 118.946 242.953 119.865C242.094 120.783 241.664 122.072 241.664 123.731V137.199H234.064V112.398H241.664V115.687C242.435 114.59 243.472 113.731 244.775 113.109C246.079 112.457 247.546 112.131 249.176 112.131Z" fill="#393939"/>
<path d="M249.824 35.9974V67.1986H242.224V35.9974H249.824ZM270.444 42.131C273.347 42.131 275.659 43.0792 277.377 44.9755C279.125 46.8423 280 49.4201 280 52.7092V67.1986H272.444V53.7314C272.444 52.0721 272.014 50.7832 271.155 49.8646C270.296 48.9461 269.14 48.4868 267.688 48.4868C266.236 48.4868 265.081 48.9461 264.221 49.8646C263.362 50.7832 262.932 52.0721 262.932 53.7314V67.1986H255.332V42.3977H262.932V45.6867C263.703 44.5903 264.74 43.731 266.044 43.1088C267.347 42.4569 268.814 42.131 270.444 42.131ZM295.37 67.5541C293.207 67.5541 291.281 67.1838 289.592 66.443C287.903 65.7022 286.57 64.6948 285.592 63.4207C284.614 62.1169 284.066 60.665 283.948 59.0649H291.459C291.548 59.9242 291.948 60.6206 292.659 61.1539C293.37 61.6873 294.244 61.9539 295.281 61.9539C296.23 61.9539 296.956 61.7762 297.459 61.4206C297.993 61.0354 298.259 60.5465 298.259 59.9539C298.259 59.2427 297.889 58.7242 297.148 58.3983C296.407 58.0427 295.207 57.6575 293.548 57.2427C291.77 56.8278 290.289 56.3982 289.103 55.9537C287.918 55.4796 286.896 54.7537 286.037 53.7759C285.177 52.7684 284.748 51.4202 284.748 49.7313C284.748 48.309 285.133 47.0201 285.903 45.8645C286.703 44.6792 287.859 43.7459 289.37 43.0644C290.911 42.3828 292.733 42.0421 294.837 42.0421C297.948 42.0421 300.393 42.8125 302.171 44.3533C303.978 45.8941 305.015 47.9386 305.282 50.4868H298.259C298.141 49.6276 297.756 48.9461 297.104 48.4423C296.481 47.9386 295.652 47.6867 294.615 47.6867C293.726 47.6867 293.044 47.8645 292.57 48.2201C292.096 48.546 291.859 49.0053 291.859 49.5979C291.859 50.3091 292.229 50.8424 292.97 51.198C293.741 51.5536 294.926 51.9091 296.526 52.2647C298.363 52.7388 299.859 53.2129 301.015 53.687C302.171 54.1314 303.178 54.8722 304.037 55.9093C304.926 56.9167 305.385 58.2797 305.415 59.9983C305.415 61.4502 305 62.754 304.171 63.9096C303.371 65.0355 302.2 65.9245 300.659 66.5763C299.148 67.2282 297.385 67.5541 295.37 67.5541ZM323.888 60.7539V67.1986H320.021C317.265 67.1986 315.117 66.5319 313.576 65.1985C312.035 63.8355 311.265 61.628 311.265 58.576V48.709H308.243V42.3977H311.265V36.353H318.865V42.3977H323.843V48.709H318.865V58.6649C318.865 59.4057 319.043 59.939 319.399 60.265C319.754 60.5909 320.347 60.7539 321.176 60.7539H323.888ZM326.61 54.7537C326.61 52.2054 327.084 49.9683 328.032 48.0423C329.01 46.1163 330.329 44.6348 331.988 43.5977C333.647 42.5606 335.499 42.0421 337.544 42.0421C339.292 42.0421 340.818 42.3977 342.122 43.1088C343.455 43.8199 344.477 44.7533 345.188 45.9089V42.3977H352.789V67.1986H345.188V63.6873C344.448 64.8429 343.411 65.7763 342.077 66.4874C340.773 67.1986 339.247 67.5541 337.499 67.5541C335.484 67.5541 333.647 67.0356 331.988 65.9985C330.329 64.9318 329.01 63.4355 328.032 61.5095C327.084 59.5539 326.61 57.3019 326.61 54.7537ZM345.188 54.7981C345.188 52.9018 344.655 51.4054 343.588 50.3091C342.551 49.2127 341.277 48.6646 339.766 48.6646C338.255 48.6646 336.966 49.2127 335.899 50.3091C334.862 51.3758 334.344 52.8573 334.344 54.7537C334.344 56.65 334.862 58.1612 335.899 59.2872C336.966 60.3835 338.255 60.9317 339.766 60.9317C341.277 60.9317 342.551 60.3835 343.588 59.2872C344.655 58.1908 345.188 56.6945 345.188 54.7981ZM367.71 42.0421C369.458 42.0421 370.984 42.3977 372.288 43.1088C373.621 43.8199 374.643 44.7533 375.354 45.9089V42.3977H382.955V67.1541C382.955 69.4357 382.495 71.495 381.577 73.3321C380.688 75.1989 379.31 76.6804 377.443 77.7767C375.606 78.8731 373.31 79.4213 370.554 79.4213C366.88 79.4213 363.902 78.5471 361.621 76.7989C359.339 75.0804 358.035 72.7395 357.709 69.7765H365.221C365.458 70.7246 366.021 71.4654 366.91 71.9988C367.799 72.5617 368.895 72.8432 370.199 72.8432C371.769 72.8432 373.014 72.384 373.932 71.4654C374.88 70.5765 375.354 69.1394 375.354 67.1541V63.6429C374.614 64.7985 373.591 65.7467 372.288 66.4874C370.984 67.1986 369.458 67.5541 367.71 67.5541C365.665 67.5541 363.813 67.0356 362.154 65.9985C360.495 64.9318 359.176 63.4355 358.198 61.5095C357.25 59.5539 356.776 57.3019 356.776 54.7537C356.776 52.2054 357.25 49.9683 358.198 48.0423C359.176 46.1163 360.495 44.6348 362.154 43.5977C363.813 42.5606 365.665 42.0421 367.71 42.0421ZM375.354 54.7981C375.354 52.9018 374.821 51.4054 373.754 50.3091C372.717 49.2127 371.443 48.6646 369.932 48.6646C368.421 48.6646 367.132 49.2127 366.065 50.3091C365.028 51.3758 364.51 52.8573 364.51 54.7537C364.51 56.65 365.028 58.1612 366.065 59.2872C367.132 60.3835 368.421 60.9317 369.932 60.9317C371.443 60.9317 372.717 60.3835 373.754 59.2872C374.821 58.1908 375.354 56.6945 375.354 54.7981ZM396.054 46.5311C396.942 45.1681 398.054 44.1014 399.387 43.331C400.72 42.531 402.202 42.131 403.832 42.131V50.1757H401.743C399.846 50.1757 398.424 50.5906 397.476 51.4202C396.528 52.2202 396.054 53.6425 396.054 55.687V67.1986H388.453V42.3977H396.054V46.5311ZM405.953 54.7537C405.953 52.2054 406.427 49.9683 407.375 48.0423C408.353 46.1163 409.672 44.6348 411.331 43.5977C412.99 42.5606 414.842 42.0421 416.887 42.0421C418.635 42.0421 420.161 42.3977 421.465 43.1088C422.798 43.8199 423.82 44.7533 424.532 45.9089V42.3977H432.132V67.1986H424.532V63.6873C423.791 64.8429 422.754 65.7763 421.42 66.4874C420.117 67.1986 418.591 67.5541 416.842 67.5541C414.828 67.5541 412.99 67.0356 411.331 65.9985C409.672 64.9318 408.353 63.4355 407.375 61.5095C406.427 59.5539 405.953 57.3019 405.953 54.7537ZM424.532 54.7981C424.532 52.9018 423.998 51.4054 422.932 50.3091C421.895 49.2127 420.62 48.6646 419.109 48.6646C417.598 48.6646 416.309 49.2127 415.242 50.3091C414.205 51.3758 413.687 52.8573 413.687 54.7537C413.687 56.65 414.205 58.1612 415.242 59.2872C416.309 60.3835 417.598 60.9317 419.109 60.9317C420.62 60.9317 421.895 60.3835 422.932 59.2872C423.998 58.1908 424.532 56.6945 424.532 54.7981ZM469.276 42.131C472.358 42.131 474.802 43.0644 476.61 44.9311C478.447 46.7978 479.365 49.3905 479.365 52.7092V67.1986H471.809V53.7314C471.809 52.1314 471.38 50.9017 470.52 50.0424C469.691 49.1535 468.535 48.709 467.054 48.709C465.572 48.709 464.402 49.1535 463.542 50.0424C462.713 50.9017 462.298 52.1314 462.298 53.7314V67.1986H454.742V53.7314C454.742 52.1314 454.312 50.9017 453.453 50.0424C452.624 49.1535 451.468 48.709 449.986 48.709C448.505 48.709 447.334 49.1535 446.475 50.0424C445.645 50.9017 445.231 52.1314 445.231 53.7314V67.1986H437.63V42.3977H445.231V45.5089C446.001 44.4718 447.009 43.657 448.253 43.0644C449.497 42.4421 450.905 42.131 452.475 42.131C454.342 42.131 456.001 42.531 457.453 43.331C458.935 44.1311 460.09 45.2718 460.92 46.7534C461.779 45.3904 462.95 44.2792 464.431 43.4199C465.913 42.5606 467.528 42.131 469.276 42.131Z" fill="#FF9900"/>
<path d="M18.4797 136.416C16.455 129.745 -3.99508 106.327 27.4477 93.2576C71.4418 74.9712 272.202 69.1608 278.991 122.664C285.761 176.023 -36.3529 162.216 5.80913 119.313C39.5387 84.9908 122.308 88.7586 161.73 93.2576" stroke="#FF9900" stroke-width="2.08341" stroke-linecap="round"/>
</svg>
