<svg width="8" height="4" viewBox="0 0 8 4" fill="none" xmlns="http://www.w3.org/2000/svg">
<path d="M4.21935 3.29704C4.11117 3.29725 4.00633 3.25958 3.92304 3.19056L1.14516 0.875658C1.05061 0.797072 0.991152 0.684146 0.979864 0.561722C0.968577 0.439298 1.00638 0.317404 1.08497 0.222855C1.16356 0.128307 1.27648 0.0688495 1.39891 0.0575621C1.52133 0.0462748 1.64322 0.0840824 1.73777 0.162668L4.21935 2.23682L6.70092 0.236745C6.74828 0.198287 6.80277 0.169568 6.86126 0.152238C6.91975 0.134908 6.98109 0.129308 7.04176 0.135762C7.10242 0.142215 7.16121 0.160594 7.21475 0.189843C7.26829 0.219091 7.31552 0.258632 7.35372 0.306192C7.39612 0.353796 7.42823 0.409644 7.44805 0.470236C7.46786 0.530828 7.47494 0.594858 7.46886 0.658316C7.46277 0.721773 7.44365 0.78329 7.41268 0.839013C7.38172 0.894736 7.33958 0.943463 7.2889 0.982143L4.51102 3.21834C4.42533 3.27645 4.32264 3.30416 4.21935 3.29704Z" fill="black"/>
</svg>
